<svg width="1024" height="1024" viewBox="0 0 32 32" xmlns="http://www.w3.org/2000/svg"><path fill="#0061ff" d="M6,16h1v1H6z"/><path fill="#0e75ff" d="M6,17h1v1H6z"/><path fill="#1b8aff" d="M6,18h1v1H6z"/><path fill="#299eff" d="M6,19h1v1H6z"/><path fill="#0061ff" d="M7,15h1v1H7z"/><path fill="#0e75ff" d="M7,16h1v1H7z"/><path fill="#1b8aff" d="M7,17h1v1H7z"/><path fill="#299eff" d="M7,18h1v1H7z"/><path fill="#37b2ff" d="M7,19h1v1H7z"/><path fill="#45c6ff" d="M7,20h1v1H7z"/><path fill="#0061ff" d="M8,17h1v1H8z"/><path fill="#0e75ff" d="M8,18h1v1H8z"/><path fill="#1b8aff" d="M8,19h1v1H8z"/><path fill="#299eff" d="M8,20h1v1H8z"/><path fill="#37b2ff" d="M8,21h1v1H8z"/><path fill="#45c6ff" d="M8,22h1v1H8z"/><path fill="#52dbff" d="M8,23h1v1H8z"/><path fill="#60efff" d="M8,24h1v1H8z"/><path fill="#0061ff" d="M9,16h1v1H9z"/><path fill="#0e75ff" d="M9,17h1v1H9z"/><path fill="#1b8aff" d="M9,18h1v1H9z"/><path fill="#299eff" d="M9,19h1v1H9z"/><path fill="#37b2ff" d="M9,20h1v1H9z"/><path fill="#45c6ff" d="M9,21h1v1H9z"/><path fill="#52dbff" d="M9,22h1v1H9z"/><path fill="#60efff" d="M9,23h1v1H9z"/><path fill="#0061ff" d="M10,18h1v1H10z"/><path fill="#0e75ff" d="M10,19h1v1H10z"/><path fill="#1b8aff" d="M10,20h1v1H10z"/><path fill="#299eff" d="M10,21h1v1H10z"/><path fill="#37b2ff" d="M10,22h1v1H10z"/><path fill="#45c6ff" d="M10,23h1v1H10z"/><path fill="#52dbff" d="M10,24h1v1H10z"/><path fill="#60efff" d="M10,25h1v1H10z"/><path fill="#0061ff" d="M11,16h1v1H11z"/><path fill="#0e75ff" d="M11,17h1v1H11z"/><path fill="#1b8aff" d="M11,18h1v1H11z"/><path fill="#299eff" d="M11,19h1v1H11z"/><path fill="#37b2ff" d="M11,20h1v1H11z"/><path fill="#45c6ff" d="M11,21h1v1H11z"/><path fill="#52dbff" d="M11,22h1v1H11z"/><path fill="#60efff" d="M11,23h1v1H11z"/><path fill="#0061ff" d="M12,18h1v1H12z"/><path fill="#0e75ff" d="M12,19h1v1H12z"/><path fill="#1b8aff" d="M12,20h1v1H12z"/><path fill="#299eff" d="M12,21h1v1H12z"/><path fill="#37b2ff" d="M12,22h1v1H12z"/><path fill="#45c6ff" d="M12,23h1v1H12z"/><path fill="#52dbff" d="M12,24h1v1H12z"/><path fill="#60efff" d="M12,25h1v1H12z"/><path fill="#0061ff" d="M13,17h1v1H13z"/><path fill="#0e75ff" d="M13,18h1v1H13z"/><path fill="#1b8aff" d="M13,19h1v1H13z"/><path fill="#299eff" d="M13,20h1v1H13z"/><path fill="#37b2ff" d="M13,21h1v1H13z"/><path fill="#45c6ff" d="M13,22h1v1H13z"/><path fill="#52dbff" d="M13,23h1v1H13z"/><path fill="#60efff" d="M13,24h1v1H13z"/><path fill="#0061ff" d="M14,16h1v1H14z"/><path fill="#0e75ff" d="M14,17h1v1H14z"/><path fill="#1b8aff" d="M14,18h1v1H14z"/><path fill="#299eff" d="M14,19h1v1H14z"/><path fill="#37b2ff" d="M14,20h1v1H14z"/><path fill="#45c6ff" d="M14,21h1v1H14z"/><path fill="#52dbff" d="M14,22h1v1H14z"/><path fill="#60efff" d="M14,23h1v1H14z"/><path fill="#0061ff" d="M15,15h1v1H15z"/><path fill="#0e75ff" d="M15,16h1v1H15z"/><path fill="#1b8aff" d="M15,17h1v1H15z"/><path fill="#299eff" d="M15,18h1v1H15z"/><path fill="#37b2ff" d="M15,19h1v1H15z"/><path fill="#45c6ff" d="M15,20h1v1H15z"/><path fill="#52dbff" d="M15,21h1v1H15z"/><path fill="#60efff" d="M15,22h1v1H15z"/><path fill="#0061ff" d="M16,14h1v1H16z"/><path fill="#0e75ff" d="M16,15h1v1H16z"/><path fill="#1b8aff" d="M16,16h1v1H16z"/><path fill="#299eff" d="M16,17h1v1H16z"/><path fill="#37b2ff" d="M16,18h1v1H16z"/><path fill="#45c6ff" d="M16,19h1v1H16z"/><path fill="#52dbff" d="M16,20h1v1H16z"/><path fill="#60efff" d="M16,21h1v1H16z"/><path fill="#0061ff" d="M17,16h1v1H17z"/><path fill="#0e75ff" d="M17,17h1v1H17z"/><path fill="#1b8aff" d="M17,18h1v1H17z"/><path fill="#299eff" d="M17,19h1v1H17z"/><path fill="#37b2ff" d="M17,20h1v1H17z"/><path fill="#45c6ff" d="M17,21h1v1H17z"/><path fill="#52dbff" d="M17,22h1v1H17z"/><path fill="#60efff" d="M17,23h1v1H17z"/><path fill="#0061ff" d="M18,18h1v1H18z"/><path fill="#0e75ff" d="M18,19h1v1H18z"/><path fill="#1b8aff" d="M18,20h1v1H18z"/><path fill="#299eff" d="M18,21h1v1H18z"/><path fill="#37b2ff" d="M18,22h1v1H18z"/><path fill="#45c6ff" d="M18,23h1v1H18z"/><path fill="#52dbff" d="M18,24h1v1H18z"/><path fill="#60efff" d="M18,25h1v1H18z"/><path fill="#0061ff" d="M19,16h1v1H19z"/><path fill="#0e75ff" d="M19,17h1v1H19z"/><path fill="#1b8aff" d="M19,18h1v1H19z"/><path fill="#299eff" d="M19,19h1v1H19z"/><path fill="#37b2ff" d="M19,20h1v1H19z"/><path fill="#45c6ff" d="M19,21h1v1H19z"/><path fill="#52dbff" d="M19,22h1v1H19z"/><path fill="#60efff" d="M19,23h1v1H19z"/><path fill="#0061ff" d="M20,18h1v1H20z"/><path fill="#0e75ff" d="M20,19h1v1H20z"/><path fill="#1b8aff" d="M20,20h1v1H20z"/><path fill="#299eff" d="M20,21h1v1H20z"/><path fill="#37b2ff" d="M20,22h1v1H20z"/><path fill="#45c6ff" d="M20,23h1v1H20z"/><path fill="#52dbff" d="M20,24h1v1H20z"/><path fill="#60efff" d="M20,25h1v1H20z"/><path fill="#0061ff" d="M21,17h1v1H21z"/><path fill="#0e75ff" d="M21,18h1v1H21z"/><path fill="#1b8aff" d="M21,19h1v1H21z"/><path fill="#299eff" d="M21,20h1v1H21z"/><path fill="#37b2ff" d="M21,21h1v1H21z"/><path fill="#45c6ff" d="M21,22h1v1H21z"/><path fill="#52dbff" d="M21,23h1v1H21z"/><path fill="#60efff" d="M21,24h1v1H21z"/><path fill="#0061ff" d="M22,16h1v1H22z"/><path fill="#0e75ff" d="M22,17h1v1H22z"/><path fill="#1b8aff" d="M22,18h1v1H22z"/><path fill="#299eff" d="M22,19h1v1H22z"/><path fill="#37b2ff" d="M22,20h1v1H22z"/><path fill="#45c6ff" d="M22,21h1v1H22z"/><path fill="#52dbff" d="M22,22h1v1H22z"/><path fill="#60efff" d="M22,23h1v1H22z"/><path fill="#0061ff" d="M23,18h1v1H23z"/><path fill="#0e75ff" d="M23,19h1v1H23z"/><path fill="#1b8aff" d="M23,20h1v1H23z"/><path fill="#299eff" d="M23,21h1v1H23z"/><path fill="#37b2ff" d="M23,22h1v1H23z"/><path fill="#45c6ff" d="M23,23h1v1H23z"/><path fill="#52dbff" d="M23,24h1v1H23z"/><path fill="#60efff" d="M23,25h1v1H23z"/><path fill="#0061ff" d="M24,17h1v1H24z"/><path fill="#0e75ff" d="M24,18h1v1H24z"/><path fill="#1b8aff" d="M24,19h1v1H24z"/><path fill="#299eff" d="M24,20h1v1H24z"/><path fill="#37b2ff" d="M24,21h1v1H24z"/><path fill="#45c6ff" d="M24,22h1v1H24z"/><path fill="#0061ff" d="M25,19h1v1H25z"/><path fill="#0e75ff" d="M25,20h1v1H25z"/><path fill="#1b8aff" d="M25,21h1v1H25z"/><path fill="#299eff" d="M25,22h1v1H25z"/></svg>